<svg xmlns="http://www.w3.org/2000/svg" width="32" height="32" viewBox="0 0 32 32">
  <defs>
    <linearGradient id="g" x1="0" x2="1" y1="0.5" y2="0.5">
      <stop offset="0%" stop-color="#fde047"/>
      <stop offset="50%" stop-color="#38bdf8"/>
      <stop offset="100%" stop-color="#a5b4fc"/>
    </linearGradient>
  </defs>
  <rect width="32" height="32" rx="8" fill="#0b1b16"/>
  <path d="M16 10c-3.9 0-7 3.1-7 7s3.1 7 7 7 7-3.1 7-7-3.1-7-7-7zm0 2c2.8 0 5 2.2 5 5s-2.2 5-5 5-5-2.2-5-5 2.2-5 5-5zM16 4v2M16 26v2M22.6 9.4l-1.4 1.4M10.8 21.2l-1.4 1.4M9.4 9.4l1.4 1.4M21.2 21.2l1.4 1.4M28 16h-2M6 16H4" stroke="url(#g)" stroke-width="2" stroke-linecap="round"/>
</svg>